G04 ================== begin FILE IDENTIFICATION RECORD ==================*
G04 Layout Name:  LAYOUT.brd*
G04 Film Name:    FAB*
G04 File Format:  Gerber RS274X*
G04 File Origin:  Cadence Allegro 16.6-2015-S059*
G04 Origin Date:  Sat Dec 09 23:24:10 2023*
G04 *
G04 Layer:  MANUFACTURING/NCDRILL_LEGEND*
G04 Layer:  MANUFACTURING/NCDRILL_FIGURE*
G04 Layer:  MANUFACTURING/XSECTION_CHART*
G04 Layer:  MANUFACTURING/NCLEGEND-1-2*
G04 Layer:  BOARD GEOMETRY/OUTLINE*
G04 Layer:  BOARD GEOMETRY/DIMENSION*
G04 *
G04 Offset:    (0.00 0.00)*
G04 Mirror:    No*
G04 Mode:      Positive*
G04 Rotation:  0*
G04 FullContactRelief:  No*
G04 UndefLineWidth:     7.00*
G04 ================== end FILE IDENTIFICATION RECORD ====================*
%FSLAX25Y25*MOIN*%
%IR0*IPPOS*OFA0.00000B0.00000*MIA0B0*SFA1.00000B1.00000*%
%AMMACRO10*
1,1,.007,.025,0.0*
20,1,.007,.025,0.0,.02462,-.004341,0.0*
1,1,.007,.02462,-.004341*
20,1,.007,.02462,-.004341,.023492,-.008551,0.0*
1,1,.007,.023492,-.008551*
20,1,.007,.023492,-.008551,.021651,-.0125,0.0*
1,1,.007,.021651,-.0125*
20,1,.007,.021651,-.0125,.019151,-.01607,0.0*
1,1,.007,.019151,-.01607*
20,1,.007,.019151,-.01607,.01607,-.019151,0.0*
1,1,.007,.01607,-.019151*
20,1,.007,.01607,-.019151,.0125,-.021651,0.0*
1,1,.007,.0125,-.021651*
20,1,.007,.0125,-.021651,.008551,-.023492,0.0*
1,1,.007,.008551,-.023492*
20,1,.007,.008551,-.023492,.004341,-.02462,0.0*
1,1,.007,.004341,-.02462*
20,1,.007,.004341,-.02462,0.0,-.025,0.0*
1,1,.007,0.0,-.025*
20,1,.007,0.0,-.025,-.004341,-.02462,0.0*
1,1,.007,-.004341,-.02462*
20,1,.007,-.004341,-.02462,-.008551,-.023492,0.0*
1,1,.007,-.008551,-.023492*
20,1,.007,-.008551,-.023492,-.0125,-.021651,0.0*
1,1,.007,-.0125,-.021651*
20,1,.007,-.0125,-.021651,-.01607,-.019151,0.0*
1,1,.007,-.01607,-.019151*
20,1,.007,-.01607,-.019151,-.019151,-.01607,0.0*
1,1,.007,-.019151,-.01607*
20,1,.007,-.019151,-.01607,-.021651,-.0125,0.0*
1,1,.007,-.021651,-.0125*
20,1,.007,-.021651,-.0125,-.023492,-.008551,0.0*
1,1,.007,-.023492,-.008551*
20,1,.007,-.023492,-.008551,-.02462,-.004341,0.0*
1,1,.007,-.02462,-.004341*
20,1,.007,-.02462,-.004341,-.025,0.0,0.0*
1,1,.007,-.025,0.0*
20,1,.007,-.025,0.0,-.02462,.004341,0.0*
1,1,.007,-.02462,.004341*
20,1,.007,-.02462,.004341,-.023492,.008551,0.0*
1,1,.007,-.023492,.008551*
20,1,.007,-.023492,.008551,-.021651,.0125,0.0*
1,1,.007,-.021651,.0125*
20,1,.007,-.021651,.0125,-.019151,.01607,0.0*
1,1,.007,-.019151,.01607*
20,1,.007,-.019151,.01607,-.01607,.019151,0.0*
1,1,.007,-.01607,.019151*
20,1,.007,-.01607,.019151,-.0125,.021651,0.0*
1,1,.007,-.0125,.021651*
20,1,.007,-.0125,.021651,-.008551,.023492,0.0*
1,1,.007,-.008551,.023492*
20,1,.007,-.008551,.023492,-.004341,.02462,0.0*
1,1,.007,-.004341,.02462*
20,1,.007,-.004341,.02462,0.0,.025,0.0*
1,1,.007,0.0,.025*
20,1,.007,0.0,.025,.004341,.02462,0.0*
1,1,.007,.004341,.02462*
20,1,.007,.004341,.02462,.008551,.023492,0.0*
1,1,.007,.008551,.023492*
20,1,.007,.008551,.023492,.0125,.021651,0.0*
1,1,.007,.0125,.021651*
20,1,.007,.0125,.021651,.01607,.019151,0.0*
1,1,.007,.01607,.019151*
20,1,.007,.01607,.019151,.019151,.01607,0.0*
1,1,.007,.019151,.01607*
20,1,.007,.019151,.01607,.021651,.0125,0.0*
1,1,.007,.021651,.0125*
20,1,.007,.021651,.0125,.023492,.008551,0.0*
1,1,.007,.023492,.008551*
20,1,.007,.023492,.008551,.02462,.004341,0.0*
1,1,.007,.02462,.004341*
20,1,.007,.02462,.004341,.025,0.0,0.0*
1,1,.007,.025,0.0*
1,1,.007,.0125,0.0*
20,1,.007,.0125,0.0,-.0125,0.0,0.0*
1,1,.007,-.0125,0.0*
1,1,.007,0.0,.0125*
20,1,.007,0.0,.0125,0.0,-.0125,0.0*
1,1,.007,0.0,-.0125*
%
%ADD10MACRO10*%
%ADD11C,.007*%
G75*
%LPD*%
G75*
G36*
G01X520150Y310300D02*
Y305884D01*
X522650D01*
Y113116D01*
X520150D01*
Y108700D01*
X535150D01*
Y113116D01*
X532650D01*
Y305884D01*
X535150D01*
Y310300D01*
X520150D01*
G37*
G36*
G01X500150Y108700D02*
Y113116D01*
X560150D01*
Y108700D01*
X500150D01*
G37*
G36*
G01Y305884D02*
Y310300D01*
X560150D01*
Y305884D01*
X500150D01*
G37*
G54D10*
X30000Y70000D03*
X10000Y87500D03*
X32500Y55000D03*
X52628Y77772D03*
X52500Y85000D03*
X42500Y137500D03*
X40823Y232558D03*
X75000Y67500D03*
X90000Y70000D03*
X97500Y55000D03*
Y92500D03*
X140000Y47500D03*
Y62500D03*
X122500Y85000D03*
G54D11*
G01X-10000Y0D02*
X-40000D01*
G01X-32500Y15000D02*
X-30000Y0D01*
X-27500Y15000D01*
X-32500D01*
G01X-48600Y83750D02*
Y96250D01*
X-50460Y93750D01*
G01Y83750D02*
X-46740D01*
G01X-36200Y83333D02*
X-36510Y83542D01*
Y83958D01*
X-36200Y84167D01*
X-35890Y83958D01*
Y83542D01*
X-36200Y83333D01*
G01X-27210Y85625D02*
X-26280Y84583D01*
X-25195Y83958D01*
X-23800Y83750D01*
X-22405Y84167D01*
X-21320Y85000D01*
X-20545Y86458D01*
X-20390Y88125D01*
X-20700Y89792D01*
X-21475Y90833D01*
X-22560Y91667D01*
X-23645Y91875D01*
X-24730Y91667D01*
X-26125Y90833D01*
X-25660Y96250D01*
X-21475D01*
G01X-11710Y83750D02*
X-11400Y86458D01*
X-10935Y88750D01*
X-10315Y90833D01*
X-9540Y93125D01*
X-8300Y96250D01*
X-14500D01*
G01X-10000Y157480D02*
X-40000D01*
G01X-27500Y142480D02*
X-30000Y157480D01*
X-32500Y142480D01*
X-27500D01*
G01X-30000Y74375D02*
Y0D01*
G01Y105625D02*
Y157480D01*
G01X-4127Y220058D02*
Y320058D01*
X479473D01*
Y220058D01*
X-4127D01*
G01Y245058D02*
X479473D01*
G01X-4127Y270058D02*
X479473D01*
G01X-4127Y295058D02*
X479473D01*
G01X0Y-10000D02*
Y-42500D01*
G01X59875Y-32500D02*
X0D01*
G01X15000Y-30000D02*
X0Y-32500D01*
X15000Y-35000D01*
Y-30000D01*
G01X0Y0D02*
Y157480D01*
X157480D01*
Y0D01*
X0D01*
G01Y167480D02*
Y195000D01*
G01X39875Y185000D02*
X0D01*
G01X15000Y187500D02*
X0Y185000D01*
X15000Y182500D01*
Y187500D01*
G01X6878Y251308D02*
Y263808D01*
X12768D01*
G01X10598Y257766D02*
X6878D01*
G01X20363Y263808D02*
X24083D01*
G01X22223D02*
Y251308D01*
G01X20363D02*
X24083D01*
G01X35553Y257558D02*
X38653D01*
Y253808D01*
X37723Y252558D01*
X36638Y251725D01*
X35088Y251308D01*
X33538Y251725D01*
X32453Y252558D01*
X31523Y253808D01*
X30903Y255266D01*
X30593Y256933D01*
Y258391D01*
X30903Y259641D01*
X31523Y261100D01*
X32453Y262350D01*
X33383Y263183D01*
X34623Y263808D01*
X35708D01*
X36948Y263391D01*
X37878Y262558D01*
G01X43613Y263808D02*
Y254850D01*
X44233Y252974D01*
X45473Y251725D01*
X47023Y251308D01*
X48573Y251725D01*
X49813Y252974D01*
X50433Y254850D01*
Y263808D01*
G01X56323Y251308D02*
Y263808D01*
X60198D01*
X61438Y263183D01*
X62213Y262350D01*
X62523Y260683D01*
X62213Y259016D01*
X61283Y257975D01*
X60198Y257350D01*
X56323D01*
G01X60198D02*
X62523Y251308D01*
G01X74923D02*
X68723D01*
Y263808D01*
X74923D01*
G01X72443Y257766D02*
X68723D01*
G01X53900Y178750D02*
Y191250D01*
X52040Y188750D01*
G01Y178750D02*
X55760D01*
G01X66300Y178333D02*
X65990Y178542D01*
Y178958D01*
X66300Y179167D01*
X66610Y178958D01*
Y178542D01*
X66300Y178333D01*
G01X75290Y180625D02*
X76220Y179583D01*
X77305Y178958D01*
X78700Y178750D01*
X80095Y179167D01*
X81180Y180000D01*
X81955Y181458D01*
X82110Y183125D01*
X81800Y184792D01*
X81025Y185833D01*
X79940Y186667D01*
X78855Y186875D01*
X77770Y186667D01*
X76375Y185833D01*
X76840Y191250D01*
X81025D01*
G01X90790Y178750D02*
X91100Y181458D01*
X91565Y183750D01*
X92185Y185833D01*
X92960Y188125D01*
X94200Y191250D01*
X88000D01*
G01X73900Y-38750D02*
Y-26250D01*
X72040Y-28750D01*
G01Y-38750D02*
X75760D01*
G01X86300Y-39167D02*
X85990Y-38958D01*
Y-38542D01*
X86300Y-38333D01*
X86610Y-38542D01*
Y-38958D01*
X86300Y-39167D01*
G01X95290Y-36875D02*
X96220Y-37917D01*
X97305Y-38542D01*
X98700Y-38750D01*
X100095Y-38333D01*
X101180Y-37500D01*
X101955Y-36042D01*
X102110Y-34375D01*
X101800Y-32708D01*
X101025Y-31667D01*
X99940Y-30833D01*
X98855Y-30625D01*
X97770Y-30833D01*
X96375Y-31667D01*
X96840Y-26250D01*
X101025D01*
G01X110790Y-38750D02*
X111100Y-36042D01*
X111565Y-33750D01*
X112185Y-31667D01*
X112960Y-29375D01*
X114200Y-26250D01*
X108000D01*
G01X85773Y270058D02*
Y220058D01*
G01X79263Y301308D02*
Y313808D01*
X82363D01*
X83603Y313183D01*
X84533Y312350D01*
X85308Y311100D01*
X85928Y309641D01*
X86083Y307558D01*
X85928Y305475D01*
X85308Y304016D01*
X84533Y302766D01*
X83603Y301933D01*
X82363Y301308D01*
X79263D01*
G01X91973D02*
Y313808D01*
X95848D01*
X97088Y313183D01*
X97863Y312350D01*
X98173Y310683D01*
X97863Y309016D01*
X96933Y307975D01*
X95848Y307350D01*
X91973D01*
G01X95848D02*
X98173Y301308D01*
G01X105613Y313808D02*
X109333D01*
G01X107473D02*
Y301308D01*
G01X105613D02*
X109333D01*
G01X116773Y313808D02*
Y301308D01*
X122973D01*
G01X129173Y313808D02*
Y301308D01*
X135373D01*
G01X160483Y312766D02*
X159553Y313391D01*
X158468Y313808D01*
X157228D01*
X155833Y313183D01*
X154748Y312141D01*
X153973Y310891D01*
X153353Y308808D01*
X153198Y306933D01*
X153508Y305058D01*
X153973Y303808D01*
X154903Y302558D01*
X155988Y301725D01*
X157073Y301308D01*
X158158D01*
X159243Y301725D01*
X160173Y302349D01*
X160948Y303183D01*
G01X166218Y301308D02*
Y313808D01*
G01X172728D02*
Y301308D01*
G01Y307558D02*
X166218D01*
G01X177998Y301308D02*
X181873Y313808D01*
X185748Y301308D01*
G01X184353Y305683D02*
X179393D01*
G01X191173Y301308D02*
Y313808D01*
X195048D01*
X196288Y313183D01*
X197063Y312350D01*
X197373Y310683D01*
X197063Y309016D01*
X196133Y307975D01*
X195048Y307350D01*
X191173D01*
G01X195048D02*
X197373Y301308D01*
G01X206673Y313808D02*
Y301308D01*
G01X203108Y313808D02*
X210238D01*
G01X219073Y300891D02*
X218763Y301100D01*
Y301516D01*
X219073Y301725D01*
X219383Y301516D01*
Y301100D01*
X219073Y300891D01*
G01Y306516D02*
X218763Y306725D01*
Y307141D01*
X219073Y307350D01*
X219383Y307141D01*
Y306725D01*
X219073Y306516D01*
G01X243873Y313808D02*
Y301308D01*
G01X240308Y313808D02*
X247438D01*
G01X256273Y301308D02*
X255033Y301516D01*
X253948Y302349D01*
X253018Y303600D01*
X252398Y305058D01*
X252088Y306725D01*
Y308391D01*
X252398Y310058D01*
X253018Y311516D01*
X253948Y312766D01*
X255033Y313600D01*
X256273Y313808D01*
X257513Y313600D01*
X258598Y312766D01*
X259528Y311516D01*
X260148Y310058D01*
X260458Y308391D01*
Y306725D01*
X260148Y305058D01*
X259528Y303600D01*
X258598Y302349D01*
X257513Y301516D01*
X256273Y301308D01*
G01X265573D02*
Y313808D01*
X269293D01*
X270533Y313183D01*
X271463Y311725D01*
X271773Y310058D01*
X271463Y308391D01*
X270688Y307141D01*
X269293Y306516D01*
X265573D01*
G01X293473Y313808D02*
Y301308D01*
G01X291303Y309641D02*
X295643D01*
G01X305873Y301308D02*
X304943Y301516D01*
X304013Y302349D01*
X303393Y303808D01*
X303083Y305475D01*
X303393Y307141D01*
X304013Y308600D01*
X304943Y309433D01*
X305873Y309641D01*
X306803Y309433D01*
X307733Y308600D01*
X308353Y307141D01*
X308508Y305475D01*
X308353Y303808D01*
X307733Y302349D01*
X306803Y301516D01*
X305873Y301308D01*
G01X331913Y307975D02*
X332533Y308600D01*
X332998Y309641D01*
X333308Y311100D01*
X332998Y312350D01*
X332378Y313183D01*
X331293Y313808D01*
X327108D01*
Y301308D01*
X332223D01*
X333308Y302141D01*
X333928Y303391D01*
X334238Y304850D01*
X333928Y306308D01*
X332998Y307558D01*
X331913Y307975D01*
X327108D01*
G01X343073Y301308D02*
X341833Y301516D01*
X340748Y302349D01*
X339818Y303600D01*
X339198Y305058D01*
X338888Y306725D01*
Y308391D01*
X339198Y310058D01*
X339818Y311516D01*
X340748Y312766D01*
X341833Y313600D01*
X343073Y313808D01*
X344313Y313600D01*
X345398Y312766D01*
X346328Y311516D01*
X346948Y310058D01*
X347258Y308391D01*
Y306725D01*
X346948Y305058D01*
X346328Y303600D01*
X345398Y302349D01*
X344313Y301516D01*
X343073Y301308D01*
G01X355473Y313808D02*
Y301308D01*
G01X351908Y313808D02*
X359038D01*
G01X367873D02*
Y301308D01*
G01X364308Y313808D02*
X371438D01*
G01X380273Y301308D02*
X379033Y301516D01*
X377948Y302349D01*
X377018Y303600D01*
X376398Y305058D01*
X376088Y306725D01*
Y308391D01*
X376398Y310058D01*
X377018Y311516D01*
X377948Y312766D01*
X379033Y313600D01*
X380273Y313808D01*
X381513Y313600D01*
X382598Y312766D01*
X383528Y311516D01*
X384148Y310058D01*
X384458Y308391D01*
Y306725D01*
X384148Y305058D01*
X383528Y303600D01*
X382598Y302349D01*
X381513Y301516D01*
X380273Y301308D01*
G01X388643D02*
Y313808D01*
X392673Y303391D01*
X396703Y313808D01*
Y301308D01*
G01X105125Y185000D02*
X157480D01*
G01X109798Y276308D02*
X113673Y288808D01*
X117548Y276308D01*
G01X116153Y280683D02*
X111193D01*
G01X122973Y288808D02*
Y276308D01*
X129173D01*
G01X135373Y288808D02*
Y276308D01*
X141573D01*
G01X159863Y288808D02*
Y279850D01*
X160483Y277974D01*
X161723Y276725D01*
X163273Y276308D01*
X164823Y276725D01*
X166063Y277974D01*
X166683Y279850D01*
Y288808D01*
G01X172108Y276308D02*
Y288808D01*
X179238Y276308D01*
Y288808D01*
G01X186213D02*
X189933D01*
G01X188073D02*
Y276308D01*
G01X186213D02*
X189933D01*
G01X200473Y288808D02*
Y276308D01*
G01X196908Y288808D02*
X204038D01*
G01X209618Y277974D02*
X210858Y276933D01*
X212253Y276308D01*
X213493D01*
X214733Y276933D01*
X215663Y277974D01*
X216128Y279433D01*
X215818Y280891D01*
X215043Y282141D01*
X213648Y282975D01*
X211788Y283391D01*
X210703Y284225D01*
X210238Y285683D01*
X210548Y287141D01*
X211323Y288183D01*
X212408Y288808D01*
X213493D01*
X214578Y288391D01*
X215508Y287350D01*
G01X233798Y276308D02*
X237673Y288808D01*
X241548Y276308D01*
G01X240153Y280683D02*
X235193D01*
G01X246973Y276308D02*
Y288808D01*
X250848D01*
X252088Y288183D01*
X252863Y287350D01*
X253173Y285683D01*
X252863Y284016D01*
X251933Y282975D01*
X250848Y282350D01*
X246973D01*
G01X250848D02*
X253173Y276308D01*
G01X265573D02*
X259373D01*
Y288808D01*
X265573D01*
G01X263093Y282766D02*
X259373D01*
G01X285413Y288808D02*
X289133D01*
G01X287273D02*
Y276308D01*
G01X285413D02*
X289133D01*
G01X296108D02*
Y288808D01*
X303238Y276308D01*
Y288808D01*
G01X320443Y276308D02*
Y288808D01*
X324473Y278391D01*
X328503Y288808D01*
Y276308D01*
G01X335013Y288808D02*
X338733D01*
G01X336873D02*
Y276308D01*
G01X335013D02*
X338733D01*
G01X346173Y288808D02*
Y276308D01*
X352373D01*
G01X358418Y277974D02*
X359658Y276933D01*
X361053Y276308D01*
X362293D01*
X363533Y276933D01*
X364463Y277974D01*
X364928Y279433D01*
X364618Y280891D01*
X363843Y282141D01*
X362448Y282975D01*
X360588Y283391D01*
X359503Y284225D01*
X359038Y285683D01*
X359348Y287141D01*
X360123Y288183D01*
X361208Y288808D01*
X362293D01*
X363378Y288391D01*
X364308Y287350D01*
G01X125125Y-32500D02*
X157480D01*
G01X142480Y-35000D02*
X157480Y-32500D01*
X142480Y-30000D01*
Y-35000D01*
G01Y182500D02*
X157480Y185000D01*
X142480Y187500D01*
Y182500D01*
G01X157480Y-10000D02*
Y-42500D01*
G01X167480Y0D02*
X210000D01*
G01X181400Y101250D02*
Y113750D01*
X179540Y111250D01*
G01Y101250D02*
X183260D01*
G01X193800Y100833D02*
X193490Y101042D01*
Y101458D01*
X193800Y101667D01*
X194110Y101458D01*
Y101042D01*
X193800Y100833D01*
G01X202790Y103125D02*
X203720Y102083D01*
X204805Y101458D01*
X206200Y101250D01*
X207595Y101667D01*
X208680Y102500D01*
X209455Y103958D01*
X209610Y105625D01*
X209300Y107292D01*
X208525Y108333D01*
X207440Y109167D01*
X206355Y109375D01*
X205270Y109167D01*
X203875Y108333D01*
X204340Y113750D01*
X208525D01*
G01X218290Y101250D02*
X218600Y103958D01*
X219065Y106250D01*
X219685Y108333D01*
X220460Y110625D01*
X221700Y113750D01*
X215500D01*
G01X157480Y167480D02*
Y195000D01*
G01X167480Y157480D02*
X210000D01*
G01X155523Y226308D02*
Y238808D01*
X153663Y236308D01*
G01Y226308D02*
X157383D01*
G01X164513Y228183D02*
X165443Y227141D01*
X166528Y226516D01*
X167923Y226308D01*
X169318Y226725D01*
X170403Y227558D01*
X171178Y229016D01*
X171333Y230683D01*
X171023Y232350D01*
X170248Y233391D01*
X169163Y234225D01*
X168078Y234433D01*
X166993Y234225D01*
X165598Y233391D01*
X166063Y238808D01*
X170248D01*
G01X180323Y225891D02*
X180013Y226100D01*
Y226516D01*
X180323Y226725D01*
X180633Y226516D01*
Y226100D01*
X180323Y225891D01*
G01X192413Y226308D02*
X192723Y229016D01*
X193188Y231308D01*
X193808Y233391D01*
X194583Y235683D01*
X195823Y238808D01*
X189623D01*
G01X206983Y226308D02*
Y238808D01*
X201248Y229850D01*
X208998D01*
G01X158468Y252974D02*
X159708Y251933D01*
X161103Y251308D01*
X162343D01*
X163583Y251933D01*
X164513Y252974D01*
X164978Y254433D01*
X164668Y255891D01*
X163893Y257141D01*
X162498Y257975D01*
X160638Y258391D01*
X159553Y259225D01*
X159088Y260683D01*
X159398Y262141D01*
X160173Y263183D01*
X161258Y263808D01*
X162343D01*
X163428Y263391D01*
X164358Y262350D01*
G01X172263Y263808D02*
X175983D01*
G01X174123D02*
Y251308D01*
G01X172263D02*
X175983D01*
G01X183578Y263808D02*
X189468D01*
X183578Y251308D01*
X189468D01*
G01X202023D02*
X195823D01*
Y263808D01*
X202023D01*
G01X199543Y257766D02*
X195823D01*
G01X200000Y91875D02*
Y0D01*
G01X197500Y15000D02*
X200000Y0D01*
X202500Y15000D01*
X197500D01*
G01X200000Y123125D02*
Y157480D01*
G01X202500Y142480D02*
X200000Y157480D01*
X197500Y142480D01*
X202500D01*
G01X274873Y270058D02*
Y220058D01*
G01X304323Y226308D02*
Y238808D01*
X308043D01*
X309283Y238183D01*
X310213Y236725D01*
X310523Y235058D01*
X310213Y233391D01*
X309438Y232141D01*
X308043Y231516D01*
X304323D01*
G01X316723Y238808D02*
Y226308D01*
X322923D01*
G01X328348D02*
X332223Y238808D01*
X336098Y226308D01*
G01X334703Y230683D02*
X329743D01*
G01X344623Y238808D02*
Y226308D01*
G01X341058Y238808D02*
X348188D01*
G01X360123Y226308D02*
X353923D01*
Y238808D01*
X360123D01*
G01X357643Y232766D02*
X353923D01*
G01X366013Y226308D02*
Y238808D01*
X369113D01*
X370353Y238183D01*
X371283Y237350D01*
X372058Y236100D01*
X372678Y234641D01*
X372833Y232558D01*
X372678Y230475D01*
X372058Y229016D01*
X371283Y227766D01*
X370353Y226933D01*
X369113Y226308D01*
X366013D01*
G01X304323Y251308D02*
Y263808D01*
X308043D01*
X309283Y263183D01*
X310213Y261725D01*
X310523Y260058D01*
X310213Y258391D01*
X309438Y257141D01*
X308043Y256516D01*
X304323D01*
G01X316723Y263808D02*
Y251308D01*
X322923D01*
G01X328348D02*
X332223Y263808D01*
X336098Y251308D01*
G01X334703Y255683D02*
X329743D01*
G01X344623Y263808D02*
Y251308D01*
G01X341058Y263808D02*
X348188D01*
G01X360123Y251308D02*
X353923D01*
Y263808D01*
X360123D01*
G01X357643Y257766D02*
X353923D01*
G01X366013Y251308D02*
Y263808D01*
X369113D01*
X370353Y263183D01*
X371283Y262350D01*
X372058Y261100D01*
X372678Y259641D01*
X372833Y257558D01*
X372678Y255475D01*
X372058Y254016D01*
X371283Y252766D01*
X370353Y251933D01*
X369113Y251308D01*
X366013D01*
G01X401973Y270058D02*
Y220058D01*
G01X434523Y226308D02*
Y238808D01*
X432663Y236308D01*
G01Y226308D02*
X436383D01*
G01X443513Y228808D02*
X444443Y227349D01*
X445683Y226516D01*
X447078Y226308D01*
X448318Y226516D01*
X449558Y227558D01*
X450333Y228808D01*
X450488Y230058D01*
X450178Y231516D01*
X449093Y232558D01*
X448008Y232975D01*
X446613D01*
G01X448008D02*
X448938Y233600D01*
X449713Y234641D01*
X450023Y235891D01*
X449713Y237141D01*
X448938Y238183D01*
X447543Y238808D01*
X446148Y238600D01*
X444753Y237766D01*
G01X428323Y251308D02*
X427083Y251516D01*
X425998Y252349D01*
X425068Y253600D01*
X424448Y255058D01*
X424138Y256725D01*
Y258391D01*
X424448Y260058D01*
X425068Y261516D01*
X425998Y262766D01*
X427083Y263600D01*
X428323Y263808D01*
X429563Y263600D01*
X430648Y262766D01*
X431578Y261516D01*
X432198Y260058D01*
X432508Y258391D01*
Y256725D01*
X432198Y255058D01*
X431578Y253600D01*
X430648Y252349D01*
X429563Y251516D01*
X428323Y251308D01*
G01X429563Y254641D02*
X431423Y251308D01*
G01X440723Y263808D02*
Y251308D01*
G01X437158Y263808D02*
X444288D01*
G01X453123Y251308D02*
Y256933D01*
X450023Y263808D01*
G01X456223D02*
X453123Y256933D01*
G01X500150Y113116D02*
Y305884D01*
X560150D01*
Y113116D01*
X500150D01*
G01X496917Y97350D02*
Y100350D01*
X497583D01*
X497850Y100200D01*
X498050Y100000D01*
X498217Y99700D01*
X498350Y99350D01*
X498383Y98850D01*
X498350Y98350D01*
X498217Y98000D01*
X498050Y97700D01*
X497850Y97500D01*
X497583Y97350D01*
X496917D01*
G01X500917D02*
X499583D01*
Y100350D01*
X500917D01*
G01X500383Y98900D02*
X499583D01*
G01X502150Y97750D02*
X502417Y97500D01*
X502717Y97350D01*
X502983D01*
X503250Y97500D01*
X503450Y97750D01*
X503550Y98100D01*
X503483Y98450D01*
X503317Y98750D01*
X503017Y98950D01*
X502617Y99050D01*
X502383Y99250D01*
X502283Y99600D01*
X502350Y99950D01*
X502517Y100200D01*
X502750Y100350D01*
X502983D01*
X503217Y100250D01*
X503417Y100000D01*
G01X505050Y100350D02*
X505850D01*
G01X505450D02*
Y97350D01*
G01X505050D02*
X505850D01*
G01X508250Y98850D02*
X508917D01*
Y97950D01*
X508717Y97650D01*
X508483Y97450D01*
X508150Y97350D01*
X507817Y97450D01*
X507583Y97650D01*
X507383Y97950D01*
X507250Y98300D01*
X507183Y98700D01*
Y99050D01*
X507250Y99350D01*
X507383Y99700D01*
X507583Y100000D01*
X507783Y100200D01*
X508050Y100350D01*
X508283D01*
X508550Y100250D01*
X508750Y100050D01*
G01X509883Y97350D02*
Y100350D01*
X511417Y97350D01*
Y100350D01*
G01X516583Y100100D02*
X516383Y100250D01*
X516150Y100350D01*
X515883D01*
X515583Y100200D01*
X515350Y99950D01*
X515183Y99650D01*
X515050Y99150D01*
X515017Y98700D01*
X515083Y98250D01*
X515183Y97950D01*
X515383Y97650D01*
X515617Y97450D01*
X515850Y97350D01*
X516083D01*
X516317Y97450D01*
X516517Y97600D01*
X516683Y97800D01*
G01X517783Y97350D02*
Y100350D01*
X518617D01*
X518883Y100200D01*
X519050Y100000D01*
X519117Y99600D01*
X519050Y99200D01*
X518850Y98950D01*
X518617Y98800D01*
X517783D01*
G01X518617D02*
X519117Y97350D01*
G01X521050D02*
X520783Y97400D01*
X520550Y97600D01*
X520350Y97900D01*
X520217Y98250D01*
X520150Y98650D01*
Y99050D01*
X520217Y99450D01*
X520350Y99800D01*
X520550Y100100D01*
X520783Y100300D01*
X521050Y100350D01*
X521317Y100300D01*
X521550Y100100D01*
X521750Y99800D01*
X521883Y99450D01*
X521950Y99050D01*
Y98650D01*
X521883Y98250D01*
X521750Y97900D01*
X521550Y97600D01*
X521317Y97400D01*
X521050Y97350D01*
G01X522950Y97750D02*
X523217Y97500D01*
X523517Y97350D01*
X523783D01*
X524050Y97500D01*
X524250Y97750D01*
X524350Y98100D01*
X524283Y98450D01*
X524117Y98750D01*
X523817Y98950D01*
X523417Y99050D01*
X523183Y99250D01*
X523083Y99600D01*
X523150Y99950D01*
X523317Y100200D01*
X523550Y100350D01*
X523783D01*
X524017Y100250D01*
X524217Y100000D01*
G01X525550Y97750D02*
X525817Y97500D01*
X526117Y97350D01*
X526383D01*
X526650Y97500D01*
X526850Y97750D01*
X526950Y98100D01*
X526883Y98450D01*
X526717Y98750D01*
X526417Y98950D01*
X526017Y99050D01*
X525783Y99250D01*
X525683Y99600D01*
X525750Y99950D01*
X525917Y100200D01*
X526150Y100350D01*
X526383D01*
X526617Y100250D01*
X526817Y100000D01*
G01X530750Y97750D02*
X531017Y97500D01*
X531317Y97350D01*
X531583D01*
X531850Y97500D01*
X532050Y97750D01*
X532150Y98100D01*
X532083Y98450D01*
X531917Y98750D01*
X531617Y98950D01*
X531217Y99050D01*
X530983Y99250D01*
X530883Y99600D01*
X530950Y99950D01*
X531117Y100200D01*
X531350Y100350D01*
X531583D01*
X531817Y100250D01*
X532017Y100000D01*
G01X534717Y97350D02*
X533383D01*
Y100350D01*
X534717D01*
G01X534183Y98900D02*
X533383D01*
G01X537383Y100100D02*
X537183Y100250D01*
X536950Y100350D01*
X536683D01*
X536383Y100200D01*
X536150Y99950D01*
X535983Y99650D01*
X535850Y99150D01*
X535817Y98700D01*
X535883Y98250D01*
X535983Y97950D01*
X536183Y97650D01*
X536417Y97450D01*
X536650Y97350D01*
X536883D01*
X537117Y97450D01*
X537317Y97600D01*
X537483Y97800D01*
G01X539250Y100350D02*
Y97350D01*
G01X538483Y100350D02*
X540017D01*
G01X541450D02*
X542250D01*
G01X541850D02*
Y97350D01*
G01X541450D02*
X542250D01*
G01X544450D02*
X544183Y97400D01*
X543950Y97600D01*
X543750Y97900D01*
X543617Y98250D01*
X543550Y98650D01*
Y99050D01*
X543617Y99450D01*
X543750Y99800D01*
X543950Y100100D01*
X544183Y100300D01*
X544450Y100350D01*
X544717Y100300D01*
X544950Y100100D01*
X545150Y99800D01*
X545283Y99450D01*
X545350Y99050D01*
Y98650D01*
X545283Y98250D01*
X545150Y97900D01*
X544950Y97600D01*
X544717Y97400D01*
X544450Y97350D01*
G01X546283D02*
Y100350D01*
X547817Y97350D01*
Y100350D01*
G01X552983Y100100D02*
X552783Y100250D01*
X552550Y100350D01*
X552283D01*
X551983Y100200D01*
X551750Y99950D01*
X551583Y99650D01*
X551450Y99150D01*
X551417Y98700D01*
X551483Y98250D01*
X551583Y97950D01*
X551783Y97650D01*
X552017Y97450D01*
X552250Y97350D01*
X552483D01*
X552717Y97450D01*
X552917Y97600D01*
X553083Y97800D01*
G01X554150Y97350D02*
Y100350D01*
G01X555550D02*
Y97350D01*
G01Y98850D02*
X554150D01*
G01X556617Y97350D02*
X557450Y100350D01*
X558283Y97350D01*
G01X557983Y98400D02*
X556917D01*
G01X559383Y97350D02*
Y100350D01*
X560217D01*
X560483Y100200D01*
X560650Y100000D01*
X560717Y99600D01*
X560650Y99200D01*
X560450Y98950D01*
X560217Y98800D01*
X559383D01*
G01X560217D02*
X560717Y97350D01*
G01X562650Y100350D02*
Y97350D01*
G01X561883Y100350D02*
X563417D01*
G01X495350Y96350D02*
X497350D01*
G01X497950D02*
X499950D01*
G01X500550D02*
X502550D01*
G01X503150D02*
X505150D01*
G01X505750D02*
X507750D01*
G01X508350D02*
X510350D01*
G01X510950D02*
X512950D01*
G01X513550D02*
X515550D01*
G01X516150D02*
X518150D01*
G01X518750D02*
X520750D01*
G01X521350D02*
X523350D01*
G01X523950D02*
X525950D01*
G01X526550D02*
X528550D01*
G01X529150D02*
X531150D01*
G01X531750D02*
X533750D01*
G01X534350D02*
X536350D01*
G01X536950D02*
X538950D01*
G01X539550D02*
X541550D01*
G01X542150D02*
X544150D01*
G01X544750D02*
X546750D01*
G01X547350D02*
X549350D01*
G01X549950D02*
X551950D01*
G01X552550D02*
X554550D01*
G01X555150D02*
X557150D01*
G01X557750D02*
X559750D01*
G01X560350D02*
X562350D01*
G01X562950D02*
X564950D01*
G01X502850Y94350D02*
Y91350D01*
G01X502083Y94350D02*
X503617D01*
G01X505450Y91350D02*
X505183Y91400D01*
X504950Y91600D01*
X504750Y91900D01*
X504617Y92250D01*
X504550Y92650D01*
Y93050D01*
X504617Y93450D01*
X504750Y93800D01*
X504950Y94100D01*
X505183Y94300D01*
X505450Y94350D01*
X505717Y94300D01*
X505950Y94100D01*
X506150Y93800D01*
X506283Y93450D01*
X506350Y93050D01*
Y92650D01*
X506283Y92250D01*
X506150Y91900D01*
X505950Y91600D01*
X505717Y91400D01*
X505450Y91350D01*
G01X508050Y94350D02*
Y91350D01*
G01X507283Y94350D02*
X508817D01*
G01X509817Y91350D02*
X510650Y94350D01*
X511483Y91350D01*
G01X511183Y92400D02*
X510117D01*
G01X512583Y94350D02*
Y91350D01*
X513917D01*
G01X518450Y94350D02*
Y91350D01*
G01X517683Y94350D02*
X519217D01*
G01X520350Y91350D02*
Y94350D01*
G01X521750D02*
Y91350D01*
G01Y92850D02*
X520350D01*
G01X523250Y94350D02*
X524050D01*
G01X523650D02*
Y91350D01*
G01X523250D02*
X524050D01*
G01X526983Y94100D02*
X526783Y94250D01*
X526550Y94350D01*
X526283D01*
X525983Y94200D01*
X525750Y93950D01*
X525583Y93650D01*
X525450Y93150D01*
X525417Y92700D01*
X525483Y92250D01*
X525583Y91950D01*
X525783Y91650D01*
X526017Y91450D01*
X526250Y91350D01*
X526483D01*
X526717Y91450D01*
X526917Y91600D01*
X527083Y91800D01*
G01X528117Y91350D02*
Y94350D01*
G01X529383D02*
X528117Y92500D01*
G01X529583Y91350D02*
X528683Y93350D01*
G01X530683Y91350D02*
Y94350D01*
X532217Y91350D01*
Y94350D01*
G01X534717Y91350D02*
X533383D01*
Y94350D01*
X534717D01*
G01X534183Y92900D02*
X533383D01*
G01X535950Y91750D02*
X536217Y91500D01*
X536517Y91350D01*
X536783D01*
X537050Y91500D01*
X537250Y91750D01*
X537350Y92100D01*
X537283Y92450D01*
X537117Y92750D01*
X536817Y92950D01*
X536417Y93050D01*
X536183Y93250D01*
X536083Y93600D01*
X536150Y93950D01*
X536317Y94200D01*
X536550Y94350D01*
X536783D01*
X537017Y94250D01*
X537217Y94000D01*
G01X538550Y91750D02*
X538817Y91500D01*
X539117Y91350D01*
X539383D01*
X539650Y91500D01*
X539850Y91750D01*
X539950Y92100D01*
X539883Y92450D01*
X539717Y92750D01*
X539417Y92950D01*
X539017Y93050D01*
X538783Y93250D01*
X538683Y93600D01*
X538750Y93950D01*
X538917Y94200D01*
X539150Y94350D01*
X539383D01*
X539617Y94250D01*
X539817Y94000D01*
G01X543817Y92600D02*
X544050Y92950D01*
X544250Y93150D01*
X544517Y93250D01*
X544750Y93150D01*
X544917Y92950D01*
X545050Y92650D01*
X545083Y92300D01*
X545050Y92000D01*
X544917Y91700D01*
X544717Y91450D01*
X544483Y91350D01*
X544217Y91450D01*
X543983Y91750D01*
X543850Y92200D01*
X543817Y92700D01*
X543883Y93350D01*
X543983Y93700D01*
X544150Y94050D01*
X544383Y94300D01*
X544617Y94350D01*
X544850Y94250D01*
X545017Y94000D01*
G01X546317Y91950D02*
X546517Y91600D01*
X546783Y91400D01*
X547083Y91350D01*
X547350Y91400D01*
X547617Y91650D01*
X547783Y91950D01*
X547817Y92250D01*
X547750Y92600D01*
X547517Y92850D01*
X547283Y92950D01*
X546983D01*
G01X547283D02*
X547483Y93100D01*
X547650Y93350D01*
X547717Y93650D01*
X547650Y93950D01*
X547483Y94200D01*
X547183Y94350D01*
X546883Y94300D01*
X546583Y94100D01*
G01X551383Y91350D02*
Y94350D01*
X552250Y91850D01*
X553117Y94350D01*
Y91350D01*
G01X554450Y94350D02*
X555250D01*
G01X554850D02*
Y91350D01*
G01X554450D02*
X555250D01*
G01X556783Y94350D02*
Y91350D01*
X558117D01*
G01X527650Y314300D02*
X524650D01*
X525250Y313900D01*
G01X527650D02*
Y314700D01*
G01X526650Y316467D02*
Y317333D01*
G01X525150Y318867D02*
X524850Y319067D01*
X524700Y319300D01*
X524650Y319567D01*
X524750Y319900D01*
X525000Y320133D01*
X525300Y320200D01*
X525600Y320167D01*
X525850Y320033D01*
X526350Y319367D01*
X526700Y319067D01*
X527200Y318867D01*
X527650Y318800D01*
Y320200D01*
G01X563083Y112116D02*
Y109116D01*
X564417D01*
G01X565717Y111616D02*
X565917Y111916D01*
X566150Y112066D01*
X566417Y112116D01*
X566750Y112016D01*
X566983Y111766D01*
X567050Y111466D01*
X567017Y111166D01*
X566883Y110916D01*
X566217Y110416D01*
X565917Y110066D01*
X565717Y109566D01*
X565650Y109116D01*
X567050D01*
G01X568950Y109016D02*
X568883Y109066D01*
Y109166D01*
X568950Y109216D01*
X569017Y109166D01*
Y109066D01*
X568950Y109016D01*
G01Y110366D02*
X568883Y110416D01*
Y110516D01*
X568950Y110566D01*
X569017Y110516D01*
Y110416D01*
X568950Y110366D01*
G01X574417Y110716D02*
X574550Y110866D01*
X574650Y111116D01*
X574717Y111466D01*
X574650Y111766D01*
X574517Y111966D01*
X574283Y112116D01*
X573383D01*
Y109116D01*
X574483D01*
X574717Y109316D01*
X574850Y109616D01*
X574917Y109966D01*
X574850Y110316D01*
X574650Y110616D01*
X574417Y110716D01*
X573383D01*
G01X576750Y109116D02*
X576483Y109166D01*
X576250Y109366D01*
X576050Y109666D01*
X575917Y110016D01*
X575850Y110416D01*
Y110816D01*
X575917Y111216D01*
X576050Y111566D01*
X576250Y111866D01*
X576483Y112066D01*
X576750Y112116D01*
X577017Y112066D01*
X577250Y111866D01*
X577450Y111566D01*
X577583Y111216D01*
X577650Y110816D01*
Y110416D01*
X577583Y110016D01*
X577450Y109666D01*
X577250Y109366D01*
X577017Y109166D01*
X576750Y109116D01*
G01X579350Y112116D02*
Y109116D01*
G01X578583Y112116D02*
X580117D01*
G01X581950D02*
Y109116D01*
G01X581183Y112116D02*
X582717D01*
G01X584550Y109116D02*
X584283Y109166D01*
X584050Y109366D01*
X583850Y109666D01*
X583717Y110016D01*
X583650Y110416D01*
Y110816D01*
X583717Y111216D01*
X583850Y111566D01*
X584050Y111866D01*
X584283Y112066D01*
X584550Y112116D01*
X584817Y112066D01*
X585050Y111866D01*
X585250Y111566D01*
X585383Y111216D01*
X585450Y110816D01*
Y110416D01*
X585383Y110016D01*
X585250Y109666D01*
X585050Y109366D01*
X584817Y109166D01*
X584550Y109116D01*
G01X586283D02*
Y112116D01*
X587150Y109616D01*
X588017Y112116D01*
Y109116D01*
G01X593083Y111866D02*
X592883Y112016D01*
X592650Y112116D01*
X592383D01*
X592083Y111966D01*
X591850Y111716D01*
X591683Y111416D01*
X591550Y110916D01*
X591517Y110466D01*
X591583Y110016D01*
X591683Y109716D01*
X591883Y109416D01*
X592117Y109216D01*
X592350Y109116D01*
X592583D01*
X592817Y109216D01*
X593017Y109366D01*
X593183Y109566D01*
G01X594950Y109116D02*
X594683Y109166D01*
X594450Y109366D01*
X594250Y109666D01*
X594117Y110016D01*
X594050Y110416D01*
Y110816D01*
X594117Y111216D01*
X594250Y111566D01*
X594450Y111866D01*
X594683Y112066D01*
X594950Y112116D01*
X595217Y112066D01*
X595450Y111866D01*
X595650Y111566D01*
X595783Y111216D01*
X595850Y110816D01*
Y110416D01*
X595783Y110016D01*
X595650Y109666D01*
X595450Y109366D01*
X595217Y109166D01*
X594950Y109116D01*
G01X596783D02*
Y112116D01*
X598317Y109116D01*
Y112116D01*
G01X599417Y109116D02*
Y112116D01*
X600083D01*
X600350Y111966D01*
X600550Y111766D01*
X600717Y111466D01*
X600850Y111116D01*
X600883Y110616D01*
X600850Y110116D01*
X600717Y109766D01*
X600550Y109466D01*
X600350Y109266D01*
X600083Y109116D01*
X599417D01*
G01X602017Y112116D02*
Y109966D01*
X602150Y109516D01*
X602417Y109216D01*
X602750Y109116D01*
X603083Y109216D01*
X603350Y109516D01*
X603483Y109966D01*
Y112116D01*
G01X606083Y111866D02*
X605883Y112016D01*
X605650Y112116D01*
X605383D01*
X605083Y111966D01*
X604850Y111716D01*
X604683Y111416D01*
X604550Y110916D01*
X604517Y110466D01*
X604583Y110016D01*
X604683Y109716D01*
X604883Y109416D01*
X605117Y109216D01*
X605350Y109116D01*
X605583D01*
X605817Y109216D01*
X606017Y109366D01*
X606183Y109566D01*
G01X607950Y112116D02*
Y109116D01*
G01X607183Y112116D02*
X608717D01*
G01X610550Y109116D02*
X610283Y109166D01*
X610050Y109366D01*
X609850Y109666D01*
X609717Y110016D01*
X609650Y110416D01*
Y110816D01*
X609717Y111216D01*
X609850Y111566D01*
X610050Y111866D01*
X610283Y112066D01*
X610550Y112116D01*
X610817Y112066D01*
X611050Y111866D01*
X611250Y111566D01*
X611383Y111216D01*
X611450Y110816D01*
Y110416D01*
X611383Y110016D01*
X611250Y109666D01*
X611050Y109366D01*
X610817Y109166D01*
X610550Y109116D01*
G01X612483D02*
Y112116D01*
X613317D01*
X613583Y111966D01*
X613750Y111766D01*
X613817Y111366D01*
X613750Y110966D01*
X613550Y110716D01*
X613317Y110566D01*
X612483D01*
G01X613317D02*
X613817Y109116D01*
G01X617917Y110116D02*
X618783D01*
G01X624283Y111866D02*
X624083Y112016D01*
X623850Y112116D01*
X623583D01*
X623283Y111966D01*
X623050Y111716D01*
X622883Y111416D01*
X622750Y110916D01*
X622717Y110466D01*
X622783Y110016D01*
X622883Y109716D01*
X623083Y109416D01*
X623317Y109216D01*
X623550Y109116D01*
X623783D01*
X624017Y109216D01*
X624217Y109366D01*
X624383Y109566D01*
G01X626150Y109116D02*
X625883Y109166D01*
X625650Y109366D01*
X625450Y109666D01*
X625317Y110016D01*
X625250Y110416D01*
Y110816D01*
X625317Y111216D01*
X625450Y111566D01*
X625650Y111866D01*
X625883Y112066D01*
X626150Y112116D01*
X626417Y112066D01*
X626650Y111866D01*
X626850Y111566D01*
X626983Y111216D01*
X627050Y110816D01*
Y110416D01*
X626983Y110016D01*
X626850Y109666D01*
X626650Y109366D01*
X626417Y109166D01*
X626150Y109116D01*
G01X628083D02*
Y112116D01*
X628883D01*
X629150Y111966D01*
X629350Y111616D01*
X629417Y111216D01*
X629350Y110816D01*
X629183Y110516D01*
X628883Y110366D01*
X628083D01*
G01X630683Y109116D02*
Y112116D01*
X631483D01*
X631750Y111966D01*
X631950Y111616D01*
X632017Y111216D01*
X631950Y110816D01*
X631783Y110516D01*
X631483Y110366D01*
X630683D01*
G01X634617Y109116D02*
X633283D01*
Y112116D01*
X634617D01*
G01X634083Y110666D02*
X633283D01*
G01X635883Y109116D02*
Y112116D01*
X636717D01*
X636983Y111966D01*
X637150Y111766D01*
X637217Y111366D01*
X637150Y110966D01*
X636950Y110716D01*
X636717Y110566D01*
X635883D01*
G01X636717D02*
X637217Y109116D01*
G01X641750D02*
Y112116D01*
X641350Y111516D01*
G01Y109116D02*
X642150D01*
G01X644350Y109016D02*
X644283Y109066D01*
Y109166D01*
X644350Y109216D01*
X644417Y109166D01*
Y109066D01*
X644350Y109016D01*
G01X646217Y109716D02*
X646417Y109366D01*
X646683Y109166D01*
X646983Y109116D01*
X647250Y109166D01*
X647517Y109416D01*
X647683Y109716D01*
X647717Y110016D01*
X647650Y110366D01*
X647417Y110616D01*
X647183Y110716D01*
X646883D01*
G01X647183D02*
X647383Y110866D01*
X647550Y111116D01*
X647617Y111416D01*
X647550Y111716D01*
X647383Y111966D01*
X647083Y112116D01*
X646783Y112066D01*
X646483Y111866D01*
G01X649550Y109116D02*
X649783Y109166D01*
X650050Y109316D01*
X650217Y109566D01*
X650283Y109916D01*
X650217Y110266D01*
X650017Y110566D01*
X649717Y110716D01*
X649383D01*
X649183Y110816D01*
X649017Y111066D01*
X648950Y111416D01*
X649050Y111766D01*
X649283Y112016D01*
X649550Y112116D01*
X649817Y112016D01*
X650050Y111766D01*
X650150Y111416D01*
X650083Y111066D01*
X649917Y110816D01*
X649717Y110716D01*
X649383D01*
X649083Y110566D01*
X648883Y110266D01*
X648817Y109916D01*
X648883Y109566D01*
X649050Y109316D01*
X649317Y109166D01*
X649550Y109116D01*
G01X653883D02*
Y112116D01*
X654750Y109616D01*
X655617Y112116D01*
Y109116D01*
G01X656950Y112116D02*
X657750D01*
G01X657350D02*
Y109116D01*
G01X656950D02*
X657750D01*
G01X659283Y112116D02*
Y109116D01*
X660617D01*
G01X568217Y104600D02*
X569683Y106800D01*
G01X568950Y107200D02*
Y104200D01*
G01X569683Y104600D02*
X568217Y106800D01*
G01X567950Y105700D02*
X569950D01*
G01X576050Y105100D02*
X576317Y104850D01*
X576617Y104700D01*
X576883D01*
X577150Y104850D01*
X577350Y105100D01*
X577450Y105450D01*
X577383Y105800D01*
X577217Y106100D01*
X576917Y106300D01*
X576517Y106400D01*
X576283Y106600D01*
X576183Y106950D01*
X576250Y107300D01*
X576417Y107550D01*
X576650Y107700D01*
X576883D01*
X577117Y107600D01*
X577317Y107350D01*
G01X578617Y107700D02*
Y105550D01*
X578750Y105100D01*
X579017Y104800D01*
X579350Y104700D01*
X579683Y104800D01*
X579950Y105100D01*
X580083Y105550D01*
Y107700D01*
G01X581283Y104700D02*
Y107700D01*
X582117D01*
X582383Y107550D01*
X582550Y107350D01*
X582617Y106950D01*
X582550Y106550D01*
X582350Y106300D01*
X582117Y106150D01*
X581283D01*
G01X582117D02*
X582617Y104700D01*
G01X583917D02*
Y107700D01*
X585183D01*
G01X584717Y106250D02*
X583917D01*
G01X586317Y104700D02*
X587150Y107700D01*
X587983Y104700D01*
G01X587683Y105750D02*
X586617D01*
G01X590483Y107450D02*
X590283Y107600D01*
X590050Y107700D01*
X589783D01*
X589483Y107550D01*
X589250Y107300D01*
X589083Y107000D01*
X588950Y106500D01*
X588917Y106050D01*
X588983Y105600D01*
X589083Y105300D01*
X589283Y105000D01*
X589517Y104800D01*
X589750Y104700D01*
X589983D01*
X590217Y104800D01*
X590417Y104950D01*
X590583Y105150D01*
G01X593017Y104700D02*
X591683D01*
Y107700D01*
X593017D01*
G01X592483Y106250D02*
X591683D01*
G01X597117Y105700D02*
X597983D01*
G01X601917Y104700D02*
X602750Y107700D01*
X603583Y104700D01*
G01X603283Y105750D02*
X602217D01*
G01X604950Y107700D02*
X605750D01*
G01X605350D02*
Y104700D01*
G01X604950D02*
X605750D01*
G01X607283D02*
Y107700D01*
X608117D01*
X608383Y107550D01*
X608550Y107350D01*
X608617Y106950D01*
X608550Y106550D01*
X608350Y106300D01*
X608117Y106150D01*
X607283D01*
G01X608117D02*
X608617Y104700D01*
G01X613150Y107700D02*
X612883Y107600D01*
X612683Y107350D01*
X612550Y107050D01*
X612450Y106650D01*
X612417Y106200D01*
X612450Y105750D01*
X612550Y105350D01*
X612683Y105050D01*
X612883Y104800D01*
X613150Y104700D01*
X613417Y104800D01*
X613617Y105050D01*
X613750Y105350D01*
X613850Y105750D01*
X613883Y106200D01*
X613850Y106650D01*
X613750Y107050D01*
X613617Y107350D01*
X613417Y107600D01*
X613150Y107700D01*
G01X617483Y104700D02*
Y107700D01*
X618350Y105200D01*
X619217Y107700D01*
Y104700D01*
G01X620550Y107700D02*
X621350D01*
G01X620950D02*
Y104700D01*
G01X620550D02*
X621350D01*
G01X622883Y107700D02*
Y104700D01*
X624217D01*
G01X568217Y209400D02*
X569683Y211600D01*
G01X568950Y212000D02*
Y209000D01*
G01X569683Y209400D02*
X568217Y211600D01*
G01X567950Y210500D02*
X569950D01*
G01X576017Y209500D02*
Y212500D01*
X576683D01*
X576950Y212350D01*
X577150Y212150D01*
X577317Y211850D01*
X577450Y211500D01*
X577483Y211000D01*
X577450Y210500D01*
X577317Y210150D01*
X577150Y209850D01*
X576950Y209650D01*
X576683Y209500D01*
X576017D01*
G01X578950Y212500D02*
X579750D01*
G01X579350D02*
Y209500D01*
G01X578950D02*
X579750D01*
G01X582617D02*
X581283D01*
Y212500D01*
X582617D01*
G01X582083Y211050D02*
X581283D01*
G01X583883Y212500D02*
Y209500D01*
X585217D01*
G01X587817D02*
X586483D01*
Y212500D01*
X587817D01*
G01X587283Y211050D02*
X586483D01*
G01X590483Y212250D02*
X590283Y212400D01*
X590050Y212500D01*
X589783D01*
X589483Y212350D01*
X589250Y212100D01*
X589083Y211800D01*
X588950Y211300D01*
X588917Y210850D01*
X588983Y210400D01*
X589083Y210100D01*
X589283Y209800D01*
X589517Y209600D01*
X589750Y209500D01*
X589983D01*
X590217Y209600D01*
X590417Y209750D01*
X590583Y209950D01*
G01X592350Y212500D02*
Y209500D01*
G01X591583Y212500D02*
X593117D01*
G01X594283Y209500D02*
Y212500D01*
X595117D01*
X595383Y212350D01*
X595550Y212150D01*
X595617Y211750D01*
X595550Y211350D01*
X595350Y211100D01*
X595117Y210950D01*
X594283D01*
G01X595117D02*
X595617Y209500D01*
G01X597150Y212500D02*
X597950D01*
G01X597550D02*
Y209500D01*
G01X597150D02*
X597950D01*
G01X600883Y212250D02*
X600683Y212400D01*
X600450Y212500D01*
X600183D01*
X599883Y212350D01*
X599650Y212100D01*
X599483Y211800D01*
X599350Y211300D01*
X599317Y210850D01*
X599383Y210400D01*
X599483Y210100D01*
X599683Y209800D01*
X599917Y209600D01*
X600150Y209500D01*
X600383D01*
X600617Y209600D01*
X600817Y209750D01*
X600983Y209950D01*
G01X604917Y210500D02*
X605783D01*
G01X609917Y209500D02*
Y212500D01*
X611183D01*
G01X610717Y211050D02*
X609917D01*
G01X612483Y209500D02*
Y212500D01*
X613317D01*
X613583Y212350D01*
X613750Y212150D01*
X613817Y211750D01*
X613750Y211350D01*
X613550Y211100D01*
X613317Y210950D01*
X612483D01*
G01X613317D02*
X613817Y209500D01*
G01X615317Y210500D02*
X616183D01*
G01X618750Y209500D02*
Y212500D01*
X617517Y210350D01*
X619183D01*
G01X622917Y210750D02*
X623150Y211100D01*
X623350Y211300D01*
X623617Y211400D01*
X623850Y211300D01*
X624017Y211100D01*
X624150Y210800D01*
X624183Y210450D01*
X624150Y210150D01*
X624017Y209850D01*
X623817Y209600D01*
X623583Y209500D01*
X623317Y209600D01*
X623083Y209900D01*
X622950Y210350D01*
X622917Y210850D01*
X622983Y211500D01*
X623083Y211850D01*
X623250Y212200D01*
X623483Y212450D01*
X623717Y212500D01*
X623950Y212400D01*
X624117Y212150D01*
G01X626150Y212500D02*
X625883Y212400D01*
X625683Y212150D01*
X625550Y211850D01*
X625450Y211450D01*
X625417Y211000D01*
X625450Y210550D01*
X625550Y210150D01*
X625683Y209850D01*
X625883Y209600D01*
X626150Y209500D01*
X626417Y209600D01*
X626617Y209850D01*
X626750Y210150D01*
X626850Y210550D01*
X626883Y211000D01*
X626850Y211450D01*
X626750Y211850D01*
X626617Y212150D01*
X626417Y212400D01*
X626150Y212500D01*
G01X628750Y209400D02*
X628683Y209450D01*
Y209550D01*
X628750Y209600D01*
X628817Y209550D01*
Y209450D01*
X628750Y209400D01*
G01X630717Y212000D02*
X630917Y212300D01*
X631150Y212450D01*
X631417Y212500D01*
X631750Y212400D01*
X631983Y212150D01*
X632050Y211850D01*
X632017Y211550D01*
X631883Y211300D01*
X631217Y210800D01*
X630917Y210450D01*
X630717Y209950D01*
X630650Y209500D01*
X632050D01*
G01X634350D02*
Y212500D01*
X633117Y210350D01*
X634783D01*
G01X638283Y209500D02*
Y212500D01*
X639150Y210000D01*
X640017Y212500D01*
Y209500D01*
G01X641350Y212500D02*
X642150D01*
G01X641750D02*
Y209500D01*
G01X641350D02*
X642150D01*
G01X643683Y212500D02*
Y209500D01*
X645017D01*
G01X568217Y311200D02*
X569683Y313400D01*
G01X568950Y313800D02*
Y310800D01*
G01X569683Y311200D02*
X568217Y313400D01*
G01X567950Y312300D02*
X569950D01*
G01X576050Y311700D02*
X576317Y311450D01*
X576617Y311300D01*
X576883D01*
X577150Y311450D01*
X577350Y311700D01*
X577450Y312050D01*
X577383Y312400D01*
X577217Y312700D01*
X576917Y312900D01*
X576517Y313000D01*
X576283Y313200D01*
X576183Y313550D01*
X576250Y313900D01*
X576417Y314150D01*
X576650Y314300D01*
X576883D01*
X577117Y314200D01*
X577317Y313950D01*
G01X578617Y314300D02*
Y312150D01*
X578750Y311700D01*
X579017Y311400D01*
X579350Y311300D01*
X579683Y311400D01*
X579950Y311700D01*
X580083Y312150D01*
Y314300D01*
G01X581283Y311300D02*
Y314300D01*
X582117D01*
X582383Y314150D01*
X582550Y313950D01*
X582617Y313550D01*
X582550Y313150D01*
X582350Y312900D01*
X582117Y312750D01*
X581283D01*
G01X582117D02*
X582617Y311300D01*
G01X583917D02*
Y314300D01*
X585183D01*
G01X584717Y312850D02*
X583917D01*
G01X586317Y311300D02*
X587150Y314300D01*
X587983Y311300D01*
G01X587683Y312350D02*
X586617D01*
G01X590483Y314050D02*
X590283Y314200D01*
X590050Y314300D01*
X589783D01*
X589483Y314150D01*
X589250Y313900D01*
X589083Y313600D01*
X588950Y313100D01*
X588917Y312650D01*
X588983Y312200D01*
X589083Y311900D01*
X589283Y311600D01*
X589517Y311400D01*
X589750Y311300D01*
X589983D01*
X590217Y311400D01*
X590417Y311550D01*
X590583Y311750D01*
G01X593017Y311300D02*
X591683D01*
Y314300D01*
X593017D01*
G01X592483Y312850D02*
X591683D01*
G01X597117Y312300D02*
X597983D01*
G01X601917Y311300D02*
X602750Y314300D01*
X603583Y311300D01*
G01X603283Y312350D02*
X602217D01*
G01X604950Y314300D02*
X605750D01*
G01X605350D02*
Y311300D01*
G01X604950D02*
X605750D01*
G01X607283D02*
Y314300D01*
X608117D01*
X608383Y314150D01*
X608550Y313950D01*
X608617Y313550D01*
X608550Y313150D01*
X608350Y312900D01*
X608117Y312750D01*
X607283D01*
G01X608117D02*
X608617Y311300D01*
G01X613150Y314300D02*
X612883Y314200D01*
X612683Y313950D01*
X612550Y313650D01*
X612450Y313250D01*
X612417Y312800D01*
X612450Y312350D01*
X612550Y311950D01*
X612683Y311650D01*
X612883Y311400D01*
X613150Y311300D01*
X613417Y311400D01*
X613617Y311650D01*
X613750Y311950D01*
X613850Y312350D01*
X613883Y312800D01*
X613850Y313250D01*
X613750Y313650D01*
X613617Y313950D01*
X613417Y314200D01*
X613150Y314300D01*
G01X617483Y311300D02*
Y314300D01*
X618350Y311800D01*
X619217Y314300D01*
Y311300D01*
G01X620550Y314300D02*
X621350D01*
G01X620950D02*
Y311300D01*
G01X620550D02*
X621350D01*
G01X622883Y314300D02*
Y311300D01*
X624217D01*
G01X563083Y309300D02*
Y306300D01*
X564417D01*
G01X566350D02*
Y309300D01*
X565950Y308700D01*
G01Y306300D02*
X566750D01*
G01X568950Y306200D02*
X568883Y306250D01*
Y306350D01*
X568950Y306400D01*
X569017Y306350D01*
Y306250D01*
X568950Y306200D01*
G01Y307550D02*
X568883Y307600D01*
Y307700D01*
X568950Y307750D01*
X569017Y307700D01*
Y307600D01*
X568950Y307550D01*
G01X574150Y309300D02*
Y306300D01*
G01X573383Y309300D02*
X574917D01*
G01X576750Y306300D02*
X576483Y306350D01*
X576250Y306550D01*
X576050Y306850D01*
X575917Y307200D01*
X575850Y307600D01*
Y308000D01*
X575917Y308400D01*
X576050Y308750D01*
X576250Y309050D01*
X576483Y309250D01*
X576750Y309300D01*
X577017Y309250D01*
X577250Y309050D01*
X577450Y308750D01*
X577583Y308400D01*
X577650Y308000D01*
Y307600D01*
X577583Y307200D01*
X577450Y306850D01*
X577250Y306550D01*
X577017Y306350D01*
X576750Y306300D01*
G01X578683D02*
Y309300D01*
X579483D01*
X579750Y309150D01*
X579950Y308800D01*
X580017Y308400D01*
X579950Y308000D01*
X579783Y307700D01*
X579483Y307550D01*
X578683D01*
G01X585283Y309050D02*
X585083Y309200D01*
X584850Y309300D01*
X584583D01*
X584283Y309150D01*
X584050Y308900D01*
X583883Y308600D01*
X583750Y308100D01*
X583717Y307650D01*
X583783Y307200D01*
X583883Y306900D01*
X584083Y306600D01*
X584317Y306400D01*
X584550Y306300D01*
X584783D01*
X585017Y306400D01*
X585217Y306550D01*
X585383Y306750D01*
G01X587150Y306300D02*
X586883Y306350D01*
X586650Y306550D01*
X586450Y306850D01*
X586317Y307200D01*
X586250Y307600D01*
Y308000D01*
X586317Y308400D01*
X586450Y308750D01*
X586650Y309050D01*
X586883Y309250D01*
X587150Y309300D01*
X587417Y309250D01*
X587650Y309050D01*
X587850Y308750D01*
X587983Y308400D01*
X588050Y308000D01*
Y307600D01*
X587983Y307200D01*
X587850Y306850D01*
X587650Y306550D01*
X587417Y306350D01*
X587150Y306300D01*
G01X588983D02*
Y309300D01*
X590517Y306300D01*
Y309300D01*
G01X591617Y306300D02*
Y309300D01*
X592283D01*
X592550Y309150D01*
X592750Y308950D01*
X592917Y308650D01*
X593050Y308300D01*
X593083Y307800D01*
X593050Y307300D01*
X592917Y306950D01*
X592750Y306650D01*
X592550Y306450D01*
X592283Y306300D01*
X591617D01*
G01X594217Y309300D02*
Y307150D01*
X594350Y306700D01*
X594617Y306400D01*
X594950Y306300D01*
X595283Y306400D01*
X595550Y306700D01*
X595683Y307150D01*
Y309300D01*
G01X598283Y309050D02*
X598083Y309200D01*
X597850Y309300D01*
X597583D01*
X597283Y309150D01*
X597050Y308900D01*
X596883Y308600D01*
X596750Y308100D01*
X596717Y307650D01*
X596783Y307200D01*
X596883Y306900D01*
X597083Y306600D01*
X597317Y306400D01*
X597550Y306300D01*
X597783D01*
X598017Y306400D01*
X598217Y306550D01*
X598383Y306750D01*
G01X600150Y309300D02*
Y306300D01*
G01X599383Y309300D02*
X600917D01*
G01X602750Y306300D02*
X602483Y306350D01*
X602250Y306550D01*
X602050Y306850D01*
X601917Y307200D01*
X601850Y307600D01*
Y308000D01*
X601917Y308400D01*
X602050Y308750D01*
X602250Y309050D01*
X602483Y309250D01*
X602750Y309300D01*
X603017Y309250D01*
X603250Y309050D01*
X603450Y308750D01*
X603583Y308400D01*
X603650Y308000D01*
Y307600D01*
X603583Y307200D01*
X603450Y306850D01*
X603250Y306550D01*
X603017Y306350D01*
X602750Y306300D01*
G01X604683D02*
Y309300D01*
X605517D01*
X605783Y309150D01*
X605950Y308950D01*
X606017Y308550D01*
X605950Y308150D01*
X605750Y307900D01*
X605517Y307750D01*
X604683D01*
G01X605517D02*
X606017Y306300D01*
G01X610117Y307300D02*
X610983D01*
G01X616483Y309050D02*
X616283Y309200D01*
X616050Y309300D01*
X615783D01*
X615483Y309150D01*
X615250Y308900D01*
X615083Y308600D01*
X614950Y308100D01*
X614917Y307650D01*
X614983Y307200D01*
X615083Y306900D01*
X615283Y306600D01*
X615517Y306400D01*
X615750Y306300D01*
X615983D01*
X616217Y306400D01*
X616417Y306550D01*
X616583Y306750D01*
G01X618350Y306300D02*
X618083Y306350D01*
X617850Y306550D01*
X617650Y306850D01*
X617517Y307200D01*
X617450Y307600D01*
Y308000D01*
X617517Y308400D01*
X617650Y308750D01*
X617850Y309050D01*
X618083Y309250D01*
X618350Y309300D01*
X618617Y309250D01*
X618850Y309050D01*
X619050Y308750D01*
X619183Y308400D01*
X619250Y308000D01*
Y307600D01*
X619183Y307200D01*
X619050Y306850D01*
X618850Y306550D01*
X618617Y306350D01*
X618350Y306300D01*
G01X620283D02*
Y309300D01*
X621083D01*
X621350Y309150D01*
X621550Y308800D01*
X621617Y308400D01*
X621550Y308000D01*
X621383Y307700D01*
X621083Y307550D01*
X620283D01*
G01X622883Y306300D02*
Y309300D01*
X623683D01*
X623950Y309150D01*
X624150Y308800D01*
X624217Y308400D01*
X624150Y308000D01*
X623983Y307700D01*
X623683Y307550D01*
X622883D01*
G01X626817Y306300D02*
X625483D01*
Y309300D01*
X626817D01*
G01X626283Y307850D02*
X625483D01*
G01X628083Y306300D02*
Y309300D01*
X628917D01*
X629183Y309150D01*
X629350Y308950D01*
X629417Y308550D01*
X629350Y308150D01*
X629150Y307900D01*
X628917Y307750D01*
X628083D01*
G01X628917D02*
X629417Y306300D01*
G01X633950D02*
Y309300D01*
X633550Y308700D01*
G01Y306300D02*
X634350D01*
G01X636550Y306200D02*
X636483Y306250D01*
Y306350D01*
X636550Y306400D01*
X636617Y306350D01*
Y306250D01*
X636550Y306200D01*
G01X638417Y306900D02*
X638617Y306550D01*
X638883Y306350D01*
X639183Y306300D01*
X639450Y306350D01*
X639717Y306600D01*
X639883Y306900D01*
X639917Y307200D01*
X639850Y307550D01*
X639617Y307800D01*
X639383Y307900D01*
X639083D01*
G01X639383D02*
X639583Y308050D01*
X639750Y308300D01*
X639817Y308600D01*
X639750Y308900D01*
X639583Y309150D01*
X639283Y309300D01*
X638983Y309250D01*
X638683Y309050D01*
G01X641750Y306300D02*
X641983Y306350D01*
X642250Y306500D01*
X642417Y306750D01*
X642483Y307100D01*
X642417Y307450D01*
X642217Y307750D01*
X641917Y307900D01*
X641583D01*
X641383Y308000D01*
X641217Y308250D01*
X641150Y308600D01*
X641250Y308950D01*
X641483Y309200D01*
X641750Y309300D01*
X642017Y309200D01*
X642250Y308950D01*
X642350Y308600D01*
X642283Y308250D01*
X642117Y308000D01*
X641917Y307900D01*
X641583D01*
X641283Y307750D01*
X641083Y307450D01*
X641017Y307100D01*
X641083Y306750D01*
X641250Y306500D01*
X641517Y306350D01*
X641750Y306300D01*
G01X646083D02*
Y309300D01*
X646950Y306800D01*
X647817Y309300D01*
Y306300D01*
G01X649150Y309300D02*
X649950D01*
G01X649550D02*
Y306300D01*
G01X649150D02*
X649950D01*
G01X651483Y309300D02*
Y306300D01*
X652817D01*
M02*
