G04 ================== begin FILE IDENTIFICATION RECORD ==================*
G04 Layout Name:  LAYOUT.brd*
G04 Film Name:    TOP*
G04 File Format:  Gerber RS274X*
G04 File Origin:  Cadence Allegro 16.6-2015-S059*
G04 Origin Date:  Sat Dec 09 23:24:10 2023*
G04 *
G04 Layer:  ETCH/TOP*
G04 Layer:  PIN/TOP*
G04 Layer:  VIA CLASS/TOP*
G04 *
G04 Offset:    (0.00 0.00)*
G04 Mirror:    No*
G04 Mode:      Positive*
G04 Rotation:  0*
G04 FullContactRelief:  No*
G04 UndefLineWidth:     0.00*
G04 ================== end FILE IDENTIFICATION RECORD ====================*
%FSLAX25Y25*MOIN*%
%IR0*IPPOS*OFA0.00000B0.00000*MIA0B0*SFA1.00000B1.00000*%
%ADD17R,.08X.12*%
%ADD15C,.03*%
%ADD10C,.04*%
%ADD11R,.05X.05*%
%ADD12R,.05118X.05118*%
%ADD18R,.036X.05*%
%ADD14R,.05X.036*%
%ADD16R,.048X.076*%
%ADD19R,.076X.048*%
%ADD13R,.05118X.07874*%
%ADD20C,.016*%
%ADD21C,.07878*%
%ADD22R,.07804X.07804*%
G75*
%LPD*%
G75*
G36*
G01X7500Y5000D02*
X7084Y5416D01*
G02X7367Y6098I283J282D01*
G01X13902D01*
Y13902D01*
X6098D01*
Y7367D01*
G02X5416Y7084I-400J0D01*
G01X5000Y7500D01*
Y150000D01*
X7500Y152500D01*
X150000D01*
X152500Y150000D01*
Y93902D01*
X149702D01*
Y95912D01*
X147698Y97916D01*
G02X147981Y98598I283J282D01*
G01X148902D01*
Y106402D01*
X141098D01*
Y98598D01*
X142798D01*
Y96588D01*
X144802Y94584D01*
G02X144519Y93902I-283J-282D01*
G01X144498D01*
Y86098D01*
X152500D01*
Y7500D01*
X150000Y5000D01*
X146579D01*
G02X146296Y5683I0J400D01*
G01X149702Y9088D01*
Y31098D01*
X151402D01*
Y38902D01*
X143598D01*
Y31098D01*
X145298D01*
Y10912D01*
X144088Y9702D01*
X141460D01*
Y17406D01*
X133540D01*
Y9702D01*
X128412D01*
X127202Y10912D01*
Y23412D01*
X120912Y29702D01*
X114612D01*
X114456Y29857D01*
G02X114598Y30198I142J141D01*
G01X121402D01*
Y31898D01*
X126912D01*
X126957Y31943D01*
G02X127298Y31802I141J-141D01*
G01Y30798D01*
X130298D01*
Y29088D01*
X133540Y25847D01*
Y18540D01*
X141460D01*
Y26460D01*
X139153D01*
X135498Y30115D01*
G02X135781Y30798I283J283D01*
G01X137702D01*
Y44798D01*
G02X138332Y45125I400J0D01*
G03X142202Y49391I1669J2374D01*
G01Y51588D01*
X142512Y51898D01*
X143598D01*
Y50198D01*
X145298D01*
Y47302D01*
X143598D01*
Y39498D01*
X151402D01*
Y47302D01*
X149702D01*
Y50198D01*
X151402D01*
Y58002D01*
X143598D01*
Y56302D01*
X140688D01*
X137798Y53412D01*
Y49391D01*
G03X137184Y46799I2202J-1890D01*
G02X136796Y46302I-388J-97D01*
G01X134702D01*
Y50198D01*
X136402D01*
Y58002D01*
X128598D01*
Y50198D01*
X130298D01*
Y46302D01*
X127298D01*
Y36802D01*
X125588D01*
X125088Y36302D01*
X121402D01*
Y38002D01*
X113598D01*
Y31681D01*
G02X112916Y31398I-400J0D01*
G01X109402Y34912D01*
Y40702D01*
X101402D01*
Y41998D01*
X109402D01*
Y47798D01*
X111312D01*
X114902Y51388D01*
Y53098D01*
X115902D01*
Y60902D01*
X112002D01*
Y62798D01*
X113412D01*
X120412Y69798D01*
X124298D01*
Y68098D01*
X130702D01*
Y76098D01*
X131998D01*
Y68098D01*
X137798D01*
Y64702D01*
X136402D01*
Y66402D01*
X128598D01*
Y58598D01*
X136402D01*
Y60298D01*
X138109D01*
G03X141891I1891J2202D01*
G01X143598D01*
Y58598D01*
X151402D01*
Y66402D01*
X143598D01*
Y64702D01*
X142202D01*
Y86098D01*
X143902D01*
Y93902D01*
X136098D01*
Y92202D01*
X130912D01*
X127202Y95912D01*
Y108412D01*
X121412Y114202D01*
X118402D01*
Y115902D01*
X114502D01*
Y123902D01*
X108098D01*
Y122202D01*
X106388D01*
X96388Y112202D01*
X89802D01*
Y113902D01*
X88102D01*
Y115012D01*
X85680Y117434D01*
X69802D01*
Y118902D01*
X68102D01*
Y126812D01*
X67998Y126915D01*
G02X68281Y127598I283J283D01*
G01X72689D01*
X78090Y122196D01*
X100310D01*
X103412Y125298D01*
X121588D01*
X133598Y113288D01*
Y111098D01*
X135298D01*
Y109012D01*
X134398Y108112D01*
Y106402D01*
X132698D01*
Y98598D01*
X140502D01*
Y106402D01*
X139881D01*
G02X139598Y107084I0J400D01*
G01X139702Y107188D01*
Y111098D01*
X141402D01*
Y118902D01*
X134212D01*
X123412Y129702D01*
X101588D01*
X98486Y126600D01*
X79914D01*
X79598Y126915D01*
G02X79881Y127598I283J283D01*
G01X90402D01*
Y142402D01*
X68281D01*
G02X67998Y143085I0J400D01*
G01X68314Y143400D01*
X93786D01*
X94388Y142798D01*
X96098D01*
Y141098D01*
X103902D01*
Y148902D01*
X96098D01*
Y147798D01*
G02X95757Y147656I-200J0D01*
G01X95610Y147804D01*
X66490D01*
X62798Y144112D01*
Y142402D01*
X57202D01*
Y144312D01*
X54312Y147202D01*
X41702D01*
Y150202D01*
X26198D01*
Y147202D01*
X22302D01*
Y148902D01*
X14498D01*
Y141098D01*
X22302D01*
Y142798D01*
X26198D01*
Y139702D01*
X10688D01*
X7798Y136812D01*
Y103188D01*
X10688Y100298D01*
X11098D01*
Y98598D01*
X18902D01*
Y106402D01*
X12202D01*
Y109798D01*
X26702D01*
Y120202D01*
X25102D01*
Y121812D01*
X22798Y124115D01*
G02X23081Y124798I283J283D01*
G01X26702D01*
Y127798D01*
X28598D01*
Y126098D01*
X30298D01*
Y123412D01*
X27798Y120912D01*
Y106588D01*
X30298Y104088D01*
Y85712D01*
X30084Y85498D01*
G02X29409Y85702I-283J283D01*
G01X21402D01*
Y86998D01*
X29402D01*
Y93402D01*
X27702D01*
Y96612D01*
X26398Y97916D01*
G02X26681Y98598I283J282D01*
G01X27302D01*
Y106402D01*
X19498D01*
Y98598D01*
X21198D01*
Y96888D01*
X23298Y94788D01*
Y93402D01*
X21598D01*
Y89502D01*
X13598D01*
Y88502D01*
X12724D01*
G03X9710Y84613I-2724J-1002D01*
G01X9781Y84605D01*
X10288Y84098D01*
X13598D01*
Y83098D01*
X21598D01*
Y79298D01*
X27798D01*
Y71891D01*
G03X32201I2202J-1891D01*
G01Y78676D01*
X32402Y78876D01*
Y81588D01*
X34702Y83888D01*
Y93098D01*
X35298D01*
Y79502D01*
X33598D01*
Y73098D01*
X41598D01*
Y69298D01*
X43298D01*
Y67088D01*
X46238Y64148D01*
X46136Y63902D01*
X46098D01*
Y56098D01*
X48698D01*
Y53902D01*
X46998D01*
Y46098D01*
X54802D01*
Y53902D01*
X53102D01*
Y56098D01*
X53902D01*
Y62798D01*
X54845D01*
X55298Y62345D01*
Y39088D01*
X57798Y36588D01*
Y33902D01*
X56098D01*
Y32202D01*
X54802D01*
Y38902D01*
X53102D01*
Y42512D01*
X50912Y44702D01*
X45912D01*
X45198Y45416D01*
G02X45481Y46098I283J282D01*
G01X46402D01*
Y53902D01*
X38598D01*
Y46098D01*
X39519D01*
G02X39802Y45416I0J-400D01*
G01X37143Y42757D01*
G02X36460Y43040I-283J283D01*
G01Y43960D01*
X28540D01*
Y36040D01*
X36460D01*
Y37798D01*
X38598D01*
Y31098D01*
X40298D01*
Y22302D01*
X38598D01*
Y20602D01*
X33902D01*
Y22302D01*
X32202D01*
Y22774D01*
X34702Y25274D01*
Y26984D01*
X36460D01*
Y34906D01*
X28540D01*
Y33146D01*
X20454D01*
X15927Y37674D01*
X14216D01*
Y40810D01*
X6296D01*
Y30134D01*
X8054D01*
Y24268D01*
X7798Y24012D01*
Y22302D01*
X6098D01*
Y14498D01*
X13902D01*
Y22302D01*
X12458D01*
Y30134D01*
X14216D01*
Y32191D01*
G02X14899Y32474I400J0D01*
G01X18630Y28744D01*
X28540D01*
Y26984D01*
X29219D01*
G02X29502Y26302I0J-400D01*
G01X27798Y24598D01*
Y22302D01*
X26098D01*
Y14498D01*
X33902D01*
Y16198D01*
X38598D01*
Y14498D01*
X46402D01*
Y22302D01*
X44702D01*
Y26012D01*
X54425D01*
X55416Y27002D01*
G02X56098Y26719I282J-283D01*
G01Y26098D01*
X63902D01*
Y33774D01*
X64498D01*
Y26098D01*
X66198D01*
Y23902D01*
X64498D01*
Y16098D01*
X72302D01*
Y16719D01*
G02X72984Y17002I400J0D01*
G01X74216Y15770D01*
X76296D01*
Y12634D01*
X84216D01*
Y14691D01*
G02X84899Y14974I400J0D01*
G01X88630Y11244D01*
X98540D01*
Y9484D01*
X106460D01*
Y16960D01*
G02X107143Y17243I400J0D01*
G01X108616Y15770D01*
X111296D01*
Y12634D01*
X119216D01*
Y23310D01*
X111296D01*
Y20174D01*
X110440D01*
X109460Y21153D01*
Y27660D01*
G02X110143Y27943I400J0D01*
G01X112788Y25298D01*
X119088D01*
X122798Y21588D01*
Y9088D01*
X126204Y5683D01*
G02X125921Y5000I-283J-283D01*
G01X7500D01*
G37*
G36*
G01X95912Y24702D02*
X82436Y38178D01*
X62202D01*
Y38412D01*
X59702Y40912D01*
Y61219D01*
G02X60384Y61502I400J0D01*
G01X61588Y60298D01*
X77800D01*
X77916Y60414D01*
G02X78598Y60131I282J-283D01*
G01Y56098D01*
X86402D01*
Y63288D01*
X86657Y63544D01*
G02X86998Y63402I141J-142D01*
G01Y56098D01*
X88698D01*
Y52288D01*
X93188Y47798D01*
X101598D01*
Y44502D01*
X93598D01*
Y38098D01*
X95298D01*
Y36388D01*
X104543Y27143D01*
G02X104260Y26460I-283J-283D01*
G01X98540D01*
Y24702D01*
X95912D01*
G37*
%LPC*%
G75*
G36*
G01X131302Y150202D02*
Y139798D01*
X115798D01*
Y142798D01*
X112302D01*
Y141098D01*
X104498D01*
Y148902D01*
X112302D01*
Y147202D01*
X115798D01*
Y150202D01*
X131302D01*
G37*
G36*
G01X149802Y118902D02*
Y111098D01*
X141998D01*
Y118902D01*
X142619D01*
G03X142902Y119584I0J400D01*
G01X142798Y119688D01*
Y123598D01*
X141098D01*
Y131402D01*
X148902D01*
Y123598D01*
X147202D01*
Y121512D01*
X148102Y120612D01*
Y118902D01*
X149802D01*
G37*
G36*
G01X34702Y49088D02*
X30912Y45298D01*
X14788D01*
X11898Y48188D01*
Y48598D01*
X10198D01*
Y56402D01*
X11898D01*
Y58598D01*
X10198D01*
Y66402D01*
X11898D01*
Y68598D01*
X10198D01*
Y76402D01*
X18002D01*
Y68598D01*
X16302D01*
Y66402D01*
X18002D01*
Y58598D01*
X16302D01*
Y56402D01*
X18002D01*
Y49702D01*
X18598D01*
Y56402D01*
X20298D01*
Y58598D01*
X18598D01*
Y66402D01*
X20298D01*
Y68598D01*
X18598D01*
Y76402D01*
X26402D01*
Y68598D01*
X24702D01*
Y66402D01*
X26402D01*
Y64702D01*
X35312D01*
X37016Y62998D01*
G03X37698Y63281I282J283D01*
G01Y63902D01*
X45502D01*
Y56098D01*
X37698D01*
Y57798D01*
X35988D01*
X33488Y60298D01*
X26402D01*
Y58598D01*
X24702D01*
Y56402D01*
X26402D01*
Y49702D01*
X29088D01*
X30298Y50912D01*
Y53109D01*
G02X34702I2202J1891D01*
G01Y49088D01*
G37*
G36*
G01X63002Y13902D02*
Y6098D01*
X55198D01*
Y13902D01*
X57798D01*
Y16098D01*
X56098D01*
Y23902D01*
X63902D01*
Y16098D01*
X62202D01*
Y13902D01*
X63002D01*
G37*
G54D21*
X20000Y20000D03*
X137500Y137500D03*
G54D22*
X30000Y10000D03*
X10000Y145000D03*
X42500Y10000D03*
X67500D03*
X117500Y42500D03*
X136600Y127500D03*
%LPD*%
G75*
G54D10*
X20000Y20000D03*
X137500Y137500D03*
G54D20*
G01X10000Y5898D02*
Y10000D01*
G01X5898D02*
X10000D01*
G01D02*
X14102D01*
G01X30000Y5898D02*
Y10000D01*
G01X25898D02*
X30000D01*
G01D02*
X34102D01*
G01X10256Y35472D02*
Y23356D01*
X10000Y23100D01*
Y18400D01*
G01X30000D02*
Y23686D01*
X32500Y26186D01*
Y30945D01*
G01X42500Y18400D02*
X30000D01*
G01X32500Y30945D02*
X19542D01*
X15015Y35472D01*
X10256D01*
G01X32500Y55000D02*
Y50000D01*
X30000Y47500D01*
X15700D01*
X14100Y49100D01*
Y52500D01*
G01Y62500D02*
Y52500D01*
G01Y62500D02*
Y72500D01*
G01X22500Y62500D02*
X34400D01*
X36900Y60000D01*
X41600D01*
G01X22500Y72500D02*
Y62500D01*
G01Y52500D02*
Y62500D01*
G01X30000Y70000D02*
Y79588D01*
X30200Y79788D01*
Y82500D01*
G01X15000Y102500D02*
X11600D01*
X10000Y104100D01*
Y115000D01*
G01X25500Y90200D02*
Y95700D01*
X23400Y97800D01*
Y102500D01*
G01X32500Y130000D02*
Y122500D01*
X30000Y120000D01*
Y107500D01*
X32500Y105000D01*
Y84800D01*
X30200Y82500D01*
G01D02*
X25500D01*
G01X10000Y87500D02*
X11200Y86300D01*
X17500D01*
G01X10000Y115000D02*
Y135900D01*
X11600Y137500D01*
X36300D01*
X37900Y139100D01*
Y145000D01*
G01X15000Y115000D02*
X10000D01*
G01X15000Y130000D02*
Y124100D01*
X16600Y122500D01*
X21300D01*
X22900Y120900D01*
Y115000D01*
G01X32500Y130000D02*
X22900D01*
G01X10000Y140898D02*
Y145000D01*
G01D02*
Y149102D01*
G01X5898Y145000D02*
X10000D01*
G01X30000D02*
X18400D01*
G01X42500Y5898D02*
Y10000D01*
G01X38398D02*
X42500D01*
G01D02*
X46602D01*
G01X42500Y28213D02*
Y18400D01*
G01X60000Y20000D02*
Y10900D01*
X59100Y10000D01*
G01X45500Y72500D02*
Y68000D01*
X48500Y65000D01*
X55757D01*
X57500Y63257D01*
Y40000D01*
X60000Y37500D01*
Y35976D01*
G01D02*
X81524D01*
X95000Y22500D01*
X102500D01*
G01X60000Y30000D02*
Y35976D01*
G01X42500Y28213D02*
X53513D01*
X55300Y30000D01*
X60000D01*
G01X42500Y35000D02*
Y28213D01*
G01X32500Y40000D02*
X37500D01*
X42500Y45000D01*
G01D02*
Y50000D01*
G01Y45000D02*
X45000Y42500D01*
X50000D01*
X50900Y41600D01*
Y35000D01*
G01Y50000D02*
Y59100D01*
X50000Y60000D01*
G01X37500Y76300D02*
Y85000D01*
G01X60000Y87500D02*
Y76300D01*
G01X45500Y80200D02*
X50200D01*
X52628Y77772D01*
G01D02*
X55300Y75100D01*
Y69700D01*
X62500Y62500D01*
X76888D01*
X79506Y65118D01*
Y74882D01*
X74188Y80200D01*
X68000D01*
G01X37500Y85000D02*
Y96300D01*
G01X52500Y85000D02*
X37500D01*
G01X35000Y115000D02*
Y110000D01*
X37500Y107500D01*
X42200D01*
X45500Y104200D01*
Y100200D01*
G01X68000Y102700D02*
X67500Y103200D01*
Y105900D01*
X65900Y107500D01*
X59100D01*
X57500Y109100D01*
Y115000D01*
G01X45500Y92500D02*
X60000D01*
G01X68000Y95000D02*
Y90500D01*
X65000Y87500D01*
X60000D01*
G01Y92500D02*
Y87500D01*
G01Y92500D02*
Y98800D01*
G01X40900Y130000D02*
Y125300D01*
X43400Y122800D01*
Y122500D01*
G01D02*
X52500D01*
X56800Y126800D01*
X65000D01*
G01X43400Y122500D02*
Y115000D01*
G01X55000Y135000D02*
Y143400D01*
X53400Y145000D01*
X37900D01*
G01X42500Y137500D02*
X46300D01*
X48800Y135000D01*
X55000D01*
G01X67500Y5898D02*
Y10000D01*
G01D02*
Y14102D01*
G01Y10000D02*
X71602D01*
G01X68400Y20000D02*
Y30000D01*
G01X80256Y17972D02*
X75128D01*
X73100Y20000D01*
X68400D01*
G01X102500Y13445D02*
X89542D01*
X85015Y17972D01*
X80256D01*
G01X68000Y72500D02*
X73700D01*
X75000Y71200D01*
Y67500D01*
G01X90000Y70000D02*
X82500Y62500D01*
Y60000D01*
G01X105000Y94500D02*
Y93800D01*
X101644Y90444D01*
X100944D01*
X93100Y82600D01*
Y79088D01*
X91512Y77500D01*
X82500D01*
X80000Y80000D01*
Y82500D01*
G01X90900Y60000D02*
Y53200D01*
X94100Y50000D01*
X110400D01*
X112700Y52300D01*
Y57000D01*
G01X85900Y110000D02*
X97300D01*
X107300Y120000D01*
X111300D01*
G01X65900Y115000D02*
X70600D01*
X70832Y115232D01*
X84768D01*
X85900Y114100D01*
Y110000D01*
G01X88000Y92500D02*
Y87600D01*
X88400Y87200D01*
Y82500D01*
G01X88000Y92500D02*
X97500D01*
G01X80000Y82500D02*
Y96300D01*
G01X77500Y110000D02*
Y106600D01*
X79100Y105000D01*
X85000D01*
X88000Y102000D01*
Y100200D01*
G01X85000Y127398D02*
Y135000D01*
G01D02*
Y142602D01*
G01Y135000D02*
X90602D01*
G01X65000D02*
Y143200D01*
X67402Y145602D01*
X94698D01*
X95300Y145000D01*
X100000D01*
G01X65900Y115000D02*
Y125900D01*
X65000Y126800D01*
G01D02*
Y135000D01*
G01X137500Y115000D02*
X135000D01*
X122500Y127500D01*
X102500D01*
X99398Y124398D01*
X79002D01*
X75000Y128400D01*
Y135000D01*
G01X115256Y17972D02*
X109528D01*
X107259Y20241D01*
Y27541D01*
X97500Y37300D01*
Y41300D01*
G01X117500Y42500D02*
Y46602D01*
G01X113398Y42500D02*
X117500D01*
G01D02*
X121602D01*
G01X105500Y41798D02*
Y45200D01*
G01X101398D02*
X105500D01*
G01D02*
X109602D01*
G01X105500Y37500D02*
Y35700D01*
X113700Y27500D01*
X120000D01*
X125000Y22500D01*
Y10000D01*
X127500Y7500D01*
X145000D01*
X147500Y10000D01*
Y35000D01*
G01X117500Y34100D02*
X126000D01*
X126500Y34600D01*
X132500D01*
G01X108800Y65000D02*
X100000D01*
X97500Y67500D01*
Y82200D01*
X100800Y85500D01*
X104800D01*
G01X108800Y65000D02*
X112500D01*
X119500Y72000D01*
X127500D01*
G01X105000Y57000D02*
X99500D01*
X97500Y55000D01*
G01X108700Y77500D02*
X110900D01*
X112500Y79100D01*
Y85500D01*
G01X108800Y102500D02*
X106600D01*
X105000Y100900D01*
Y94500D01*
G01X107500Y112000D02*
Y103800D01*
X108800Y102500D01*
G01X112500Y85500D02*
Y89600D01*
X112700Y89800D01*
Y94500D01*
G01X140000Y90000D02*
X130000D01*
X125000Y95000D01*
Y107500D01*
X120500Y112000D01*
X115200D01*
G01X119600Y145000D02*
X108400D01*
G01X137500Y13445D02*
Y17606D01*
G01X133339Y13445D02*
X137500D01*
G01D02*
X141661D01*
G01X147500Y54100D02*
Y43400D01*
G01X140000Y47500D02*
Y52500D01*
X141600Y54100D01*
X147500D01*
G01X132500Y34600D02*
Y30000D01*
X137500Y25000D01*
Y22500D01*
G01X132500Y54100D02*
Y42500D01*
G01X122500Y85000D02*
X127500Y80000D01*
X131300D01*
G01X132500Y62500D02*
X140000D01*
G01Y90000D02*
Y72500D01*
G01D02*
X139500Y72000D01*
X135200D01*
G01X140000Y62500D02*
Y72500D01*
G01Y62500D02*
X147500D01*
G01X137500Y115000D02*
Y108100D01*
X136600Y107200D01*
Y102500D01*
G01X148400Y90000D02*
X147500Y90900D01*
Y95000D01*
X145000Y97500D01*
Y102500D01*
G01X136600Y123398D02*
Y127500D01*
G01D02*
Y131602D01*
G01X132498Y127500D02*
X136600D01*
G01X127500Y139598D02*
Y145000D01*
G01X145000Y127500D02*
Y120600D01*
X145900Y119700D01*
Y115000D01*
G01X127500Y145000D02*
Y150402D01*
G01Y145000D02*
X131502D01*
G54D11*
X10000Y10000D03*
Y18400D03*
X30000Y10000D03*
Y18400D03*
X22500Y52500D03*
X14100D03*
X22500Y72500D03*
X14100D03*
X22500Y62500D03*
X14100D03*
X15000Y102500D03*
X23400D03*
X32500Y130000D03*
X10000Y145000D03*
X18400D03*
X60000Y20000D03*
X59100Y10000D03*
X42500D03*
Y18400D03*
Y50000D03*
X50900D03*
X42500Y35000D03*
X50900D03*
X60000Y30000D03*
X50000Y60000D03*
X41600D03*
X40900Y130000D03*
X35000Y115000D03*
X43400D03*
X57500D03*
X68400Y20000D03*
X67500Y10000D03*
X68400Y30000D03*
X82500Y60000D03*
X90900D03*
X80000Y82500D03*
X88400D03*
X77500Y110000D03*
X85900D03*
X65900Y115000D03*
X117500Y42500D03*
Y34100D03*
X100000Y145000D03*
X108400D03*
X147500Y35000D03*
Y43400D03*
Y62500D03*
Y54100D03*
X132500Y62500D03*
Y54100D03*
X145000Y102500D03*
X136600D03*
X140000Y90000D03*
X148400D03*
X137500Y115000D03*
X145900D03*
X145000Y127500D03*
X136600D03*
G54D12*
X32500Y30945D03*
Y40000D03*
X102500Y13445D03*
Y22500D03*
X137500Y13445D03*
Y22500D03*
G54D13*
X10256Y35472D03*
X80256Y17972D03*
X115256D03*
G54D14*
X25500Y82500D03*
Y90200D03*
X17500Y86300D03*
X60000Y76300D03*
X45500Y72500D03*
Y80200D03*
X37500Y76300D03*
X45500Y92500D03*
Y100200D03*
X37500Y96300D03*
X60000Y98800D03*
X68000Y72500D03*
Y80200D03*
X88000Y92500D03*
Y100200D03*
X80000Y96300D03*
X68000Y95000D03*
Y102700D03*
X105500Y37500D03*
Y45200D03*
X97500Y41300D03*
G54D15*
X30000Y70000D03*
X10000Y87500D03*
X32500Y55000D03*
X52628Y77772D03*
X52500Y85000D03*
X42500Y137500D03*
X75000Y67500D03*
X90000Y70000D03*
X97500Y55000D03*
Y92500D03*
X140000Y47500D03*
Y62500D03*
X122500Y85000D03*
G54D16*
X15000Y115000D03*
X22900D03*
X30000Y145000D03*
X15000Y130000D03*
X22900D03*
X37900Y145000D03*
X119600D03*
X127500D03*
G54D17*
X65000Y135000D03*
X55000D03*
X85000D03*
X75000D03*
G54D18*
X108700Y77500D03*
X105000Y57000D03*
X112700D03*
X108800Y65000D03*
X107500Y112000D03*
X115200D03*
X105000Y94500D03*
X112700D03*
X108800Y102500D03*
X112500Y85500D03*
X104800D03*
X111300Y120000D03*
X127500Y72000D03*
X135200D03*
X131300Y80000D03*
G54D19*
X132500Y42500D03*
Y34600D03*
M02*
